# xmcd CD database file
#
# Track frame offsets:
#	150
#	17558
#	30977
#	42273
#	51356
#	61773
#	74577
#	94573
#	110564
#	123419
#	136215
#	147426
#	163518
#	175257
#	184617
#	195520
#	205403
#	217841
#	228514
#	240652
#
# Disc length: 3344 seconds
#
# Revision: 2
# Processed by: cddbd v1.5.2PL0 Copyright (c) Steve Scherf et al.
# Submitted via: CDex 1.70beta2
#
DISCID=160d0e14
DTITLE=Johnny Cash - The Album [CD2)
DYEAR=1900
DGENRE=Country
TTITLE0=Sundy Morning Coming Down
TTITLE1=If I Were A Carbenter - Duett With June Carter
TTITLE2=Get Rhythm
TTITLE3=Blue Train
TTITLE4=Hey Porter
TTITLE5=Wanted Man
TTITLE6=Let Him Roll
TTITLE7=The Greatest Cowboy Of Them All
TTITLE8=Ballad Of Ira Hayes
TTITLE9=San Quentin * Live Recording
TTITLE10=Oh Lonesome Me
TTITLE11=City of New Orleans **Reworked Live-Version
TTITLE12=The Highway Man **Reworked Live-Version
TTITLE13=Luther Played The Boogie
TTITLE14=Cry, Cry, Cry
TTITLE15=Rock Island Line
TTITLE16=Jackson
TTITLE17=Daddy Sang Bass
TTITLE18=Train Of Love
TTITLE19=You Win Again
EXTD=
EXTT0=
EXTT1=
EXTT2=
EXTT3=
EXTT4=
EXTT5=
EXTT6=
EXTT7=
EXTT8=
EXTT9=
EXTT10=
EXTT11=
EXTT12=
EXTT13=
EXTT14=
EXTT15=
EXTT16=
EXTT17=
EXTT18=
EXTT19=
PLAYORDER=
